<?xml version="1.0" encoding="utf-8"?>
<!-- Generator: Adobe Illustrator 22.1.0, SVG Export Plug-In . SVG Version: 6.00 Build 0)  -->
<svg version="1.1" id="Layer_1" xmlns="http://www.w3.org/2000/svg" xmlns:xlink="http://www.w3.org/1999/xlink" x="0px" y="0px"
	 viewBox="0 0 8192 1776" style="enable-background:new 0 0 8192 1776;" xml:space="preserve">
<style type="text/css">
	.st0{fill:#014986;}
	.st1{fill:#0A3B70;}
	.st2{fill:#C0D305;}
	.st3{fill:#C0D308;}
	.st4{fill:#749943;}
	.st5{fill:#BFD30E;}
	.st6{fill:#759A44;}
	.st7{fill:#BDD105;}
	.st8{fill:#799C4A;}
	.st9{fill:#BFD317;}
	.st10{fill:#628C2F;}
</style>
<title>Sonfin-logo</title>
<g>
	<g>
		<path class="st0" d="M242.6,886.4c14.4,108.8,98.4,149.5,184.6,88.3c13.8-544.6,254.5-795,817.9-851
			C778.2-69.7,252.1,317.9,216.2,738C262.6,780.7,236,836.6,242.6,886.4z"/>
		<path class="st1" d="M427.2,974.7c-12.7,48.2-37.2,80.9-93.1,62.1c-57-19.1-100.3-54.5-113.5-116.3
			c-12.9-60.3,4.8-121.9-4.5-182.6c-62.2,318.6,46.2,576.6,293.2,774.1c207.7,166.1,446.1,210,701.7,138
			c-67.4-17-138.3-18.1-204.9-35.6C675.3,1527.5,497.5,1299.1,427.2,974.7z"/>
		<path class="st1" d="M220.7,920.5c13.2,61.8,56.5,97.2,113.5,116.3c55.9,18.8,80.4-13.9,93.1-62.1
			c-86.3,61.1-170.2,20.5-184.6-88.3c-6.6-49.8,20.1-105.7-26.4-148.4C225.4,798.7,207.8,860.2,220.7,920.5z"/>
		<path class="st2" d="M633.9,587.9c115.6-5.6,860.8-208.9,954.7-259.9c-122.6-135-122.5-134.9-282.1-64.7
			c-191.3,84.1-383.2,167-573.8,252.8C696.4,532.4,645,532.9,633.9,587.9z"/>
		<path class="st3" d="M636.2,733.1c375.3-44.4,745.3-88.2,1120.8-132.7c-17.2-98-51.6-144.9-158.4-120.8
			C1309,545.1,1017.2,601,726.7,662.8C693.4,669.9,644.1,661,636.2,733.1z"/>
		<path class="st4" d="M630,1202.8c229.3,100.6,462.9,192.8,686.3,305.2c125.8,63.3,200.6,32.4,277.8-85.8
			c-322.3-87.3-637-172.5-951.6-257.7C638.4,1177.3,634.2,1190.1,630,1202.8z"/>
		<path class="st5" d="M1663.1,735L1663.1,735c-343.9,0.6-683.7,43.9-1024.1,90.8c322.6,10.6,643.8,30.7,964.7,0.7
			C1623.5,796,1643.3,765.5,1663.1,735L1663.1,735z"/>
		<path class="st6" d="M980.9,1149.3c204.8,43.7,410.8,83,614.1,133.1c103.1,25.4,145.9-11,159.3-118.1
			c-201.1-22-399.7-43.6-598.3-65.3C1097.6,1115.8,1039.2,1132.5,980.9,1149.3z"/>
		<path class="st7" d="M642,929.9c-0.2,12.6-0.4,25.1-0.6,37.7c242,13.1,484,26.2,726,39.3c30-25.7,60-51.3,90-77
			C1185.7,929.9,913.9,929.9,642,929.9z"/>
		<path class="st8" d="M1732.8,928.7c-91.7-0.8-183.5,0.7-275.3,1.2h0.1c-5.4,54.5-33.5,82.4-90.1,77
			c119.5,32.4,243.8,12.9,364.3,33.3c48.4,8.2,75.6-2.6,79.9-55.5C1816.9,919.7,1770.2,929,1732.8,928.7z"/>
		<path class="st8" d="M1457.5,929.9L1457.5,929.9c-30.1,25.7-60.1,51.3-90.1,77C1424,1012.2,1452.2,984.4,1457.5,929.9z"/>
		<path class="st9" d="M1155.9,1099c-171.6-32.2-344-53.2-520-42.1c110.3,55,226.4,78.4,345,92.5h0l0,0
			C1022.1,1072.9,1097.8,1116.5,1155.9,1099z"/>
		<path class="st9" d="M980.9,1149.3L980.9,1149.3c58.4-16.8,116.7-33.5,175.1-50.3C1097.8,1116.5,1022.1,1072.9,980.9,1149.3z"/>
		<path class="st10" d="M1663.1,735c20.2,56.4-20,73.7-59.3,91.5c51.3,0.5,102.6,1.3,153.8,1.6c35.2,0.2,57.5-9.9,49-52.9
			c-6.3-32.1-11.3-59.9-54.5-52.3C1722.7,728.1,1692.8,731,1663.1,735z"/>
		<path class="st10" d="M1663.1,735L1663.1,735c-19.8,30.5-39.6,61-59.3,91.5C1643.1,808.6,1683.3,791.4,1663.1,735z"/>
	</g>
	<g>
		<path d="M2862.2,592.8l-81.1,159.9l-13.9-7.9c0.3-3.3,0.5-6,0.5-8c0-11.3-9.6-23.4-28.8-36.3c-59-41.1-128.3-61.7-207.9-61.7
			c-35.1,0-66.1,4.3-93,12.9c-19.6,6.6-35.4,16.6-47.5,29.8c-12.1,13.2-18.1,27.6-18.1,43.2c0,25.5,15.4,42.9,46.2,52.1
			c15.9,4.6,50.1,9.6,102.5,14.9l78.1,7.9c46.4,5,84,11.8,112.6,20.4s54.1,20.7,76.4,36.3c22.6,16.2,40.3,37.6,53.5,64.1
			c13.1,26.5,19.7,54.8,19.7,85c0,47.7-15.4,90.1-46.3,127.3c-27.9,33.8-71.1,58.8-129.8,75c-43.7,12.2-90.7,18.4-140.7,18.4
			c-89.8,0-178.6-21.5-266.1-64.6c-18.6-8.6-29.7-12.9-33.3-12.9c-4.3,0-11.1,3.6-20.4,10.9l-14.4-7.4l73.6-166.6l14.4,7
			c0,3,0,5.1,0,6.5c0,14.9,7.1,28.7,21.4,41.3c21.5,19.2,54.9,35.8,99.9,49.7c45.1,13.9,87.9,20.9,128.3,20.9
			c44.1,0,81.7-7.4,112.9-22.3c17.3-8.2,31-19.2,41.3-33c10.3-13.7,15.4-28.1,15.4-43c0-22.5-12.1-38.5-36.3-48.2
			c-16.9-6.6-51.1-12.7-102.5-18.3l-76.6-7.9c-51.4-5.3-87.7-10.4-108.9-15.2c-21.2-4.8-42.4-12.5-63.6-23.1
			c-30.2-14.9-53.9-37.3-71.1-67.2c-15.6-26.9-23.4-57.7-23.4-92.6c0-57.4,19.7-104.9,59.2-142.4c51.7-49.5,129.3-74.2,232.7-74.2
			c43.5,0,83.9,4.4,121.4,13.2c37.5,8.9,84.2,25.1,140.2,48.7c19.2,7.7,31,11.5,35.3,11.5c7,0,15.1-3.8,24.4-11.5L2862.2,592.8z"/>
		<path d="M3638.9,523.3c118.4,0,212.3,32,281.7,96c73.3,67,110,153.5,110,259.6c0,65-17.6,125.6-52.8,182
			c-68.7,110.1-181.3,165.1-337.9,165.1c-117.4,0-210.8-32-280.2-96c-37.2-34.1-65.3-75.1-84.6-122.9
			c-16.9-42.1-25.4-86.4-25.4-132.8c0-67.9,17.4-130.1,52.2-186.5C3368.7,580.2,3481,525.3,3638.9,523.3z M3639.4,638.7
			c-64.7,0-118.6,19.2-161.8,57.6c-51.1,45.4-76.7,104.9-76.7,178.4c0,73.5,25.6,133,76.7,178.4c43.2,38.4,97.4,57.6,162.8,57.6
			c65.4,0,119.5-19.2,162.3-57.6c25.6-22.9,45.1-50.9,58.8-84c12-29.5,17.9-59.9,17.9-91.4c0-76.8-25.6-137.3-76.7-181.4
			C3759.2,658.6,3704.8,639.4,3639.4,638.7z"/>
		<path d="M4606.1,749.2v412.8c0,10.3,2.3,18.1,7,23.4c4.6,5.3,12.9,9.6,24.9,12.9v15.9h-199.5v-15.9c12-3.3,20.2-7.6,24.9-12.9
			c4.6-5.3,7-13.1,7-23.4V587c0-10-2.3-17.6-7-22.9c-4.6-5.3-12.9-9.6-24.9-13v-15.9h230.8v15.9c-14.3,3.7-21.4,11.3-21.4,22.9
			c0,8,4.6,16.8,13.9,26.4l374.5,389.4V587c0-10-2.3-17.6-7-22.9s-12.9-9.6-24.9-13v-15.9H5204v15.9c-12,3.4-20.2,7.7-24.9,13
			c-4.7,5.3-7,12.9-7,22.9v574.9c0,10.3,2.3,18.1,7,23.4c4.6,5.3,12.9,9.6,24.9,12.9v15.9h-213.9v-15.9c13.9-3,20.9-10.1,20.9-21.4
			c0-6.7-8.2-18.2-24.4-34.8L4606.1,749.2z"/>
		<path d="M5807.8,917.3v244.7c0,10.3,2.4,18.2,7.2,23.6c4.8,5.5,13,9.7,24.6,12.7v15.9h-211.9v-15.9c12-3.3,20.2-7.6,24.9-12.9
			c4.6-5.3,7-13.1,7-23.4V587.5c0-10.3-2.3-18.1-7-23.4s-12.9-9.6-24.9-13v-15.9h600.8c9.9,0,17.5-2.3,22.8-6.9
			c5.3-4.6,9.6-12.9,13-25h15.9V679h-15.9c-3.3-12.1-7.7-20.4-13-25c-5.3-4.6-12.9-6.8-22.8-6.8h-420.8v162.1h275
			c10.3,0,18.1-2.4,23.4-7.1c5.3-4.8,9.6-13,12.9-24.7h15.9v171.6h-15.9c-3.3-11.8-7.6-20-12.9-24.7s-13.1-7.1-23.4-7.1H5807.8z"/>
		<path d="M6702.2,1161.9V587c0-10-2.3-17.6-7-22.9c-4.7-5.3-13-9.6-24.9-13v-15.9h211.9v15.9c-11.9,3-20.2,7.2-24.8,12.7
			c-4.7,5.5-7,13.2-7,23.1v574.9c0,10.3,2.4,18.2,7.3,23.6c4.8,5.5,13,9.7,24.6,12.7v15.9h-211.9v-15.9c11.9-3.3,20.2-7.6,24.9-12.9
			C6699.9,1180,6702.2,1172.2,6702.2,1161.9z"/>
		<path d="M7473.2,749.2v412.8c0,10.3,2.3,18.1,7,23.4c4.6,5.3,13,9.6,24.9,12.9v15.9h-199.5v-15.9c11.9-3.3,20.2-7.6,24.9-12.9
			c4.6-5.3,7-13.1,7-23.4V587c0-10-2.3-17.6-7-22.9c-4.7-5.3-13-9.6-24.9-13v-15.9h230.7v15.9c-14.2,3.7-21.4,11.3-21.4,22.9
			c0,8,4.6,16.8,13.9,26.4l374.5,389.4V587c0-10-2.3-17.6-7-22.9s-12.9-9.6-24.8-13v-15.9H8071v15.9c-11.9,3.4-20.2,7.7-24.8,13
			s-7,12.9-7,22.9v574.9c0,10.3,2.3,18.1,7,23.4c4.6,5.3,12.9,9.6,24.8,12.9v15.9h-213.9v-15.9c14-3,20.9-10.1,20.9-21.4
			c0-6.7-8.1-18.2-24.4-34.8L7473.2,749.2z"/>
	</g>
</g>
</svg>
