<svg id="Layer_2" data-name="Layer 2" xmlns="http://www.w3.org/2000/svg" viewBox="0 0 188 189"><defs><style>.cls-1{fill:#fff;}</style></defs><title>icons</title><path class="cls-1" d="M93.72,181.56a87.73,87.73,0,1,1,87.72-87.73A87.83,87.83,0,0,1,93.72,181.56Zm0-173.45a85.73,85.73,0,1,0,85.72,85.72A85.82,85.82,0,0,0,93.72,8.11Z"/><path class="cls-1" d="M153.33,133.22H34.67v-11H153.33Zm-116.66-2H151.33v-7H36.67Z"/><path class="cls-1" d="M137.67,124.14H52.33a13,13,0,0,1-13-13V73.57a13,13,0,0,1,13-13h85.34a13,13,0,0,1,13,13v37.57A13,13,0,0,1,137.67,124.14ZM52.33,62.57a11,11,0,0,0-11,11v37.57a11,11,0,0,0,11,11h85.34a11,11,0,0,0,11-11V73.57a11,11,0,0,0-11-11Z"/><path class="cls-1" d="M123.33,95.58H66.67V89.13h56.66Zm-54.66-2h52.66V91.13H68.67Z"/><path class="cls-1" d="M82.17,62.57H66.5v-6.5H82.17Zm-13.67-2H80.17v-2.5H68.5Z"/><path class="cls-1" d="M101.83,62.57H86.17v-6.5h15.66Zm-13.66-2H99.83v-2.5H88.17Z"/><path class="cls-1" d="M155.25,94.83h-6.5V79.17h6.5Zm-4.5-2h2.5V81.17h-2.5Z"/></svg>