<svg id="Layer_2" data-name="Layer 2" xmlns="http://www.w3.org/2000/svg" viewBox="0 0 189 189"><defs><style>.cls-1{fill:#fff;}</style></defs><title>icons</title><path class="cls-1" d="M94.5,181.56a87.73,87.73,0,1,1,87.72-87.73A87.83,87.83,0,0,1,94.5,181.56Zm0-173.45a85.73,85.73,0,1,0,85.72,85.72A85.81,85.81,0,0,0,94.5,8.11Z"/><path class="cls-1" d="M142.38,108.56h-95L58.7,47.22H132Zm-92.65-2H140l-9.66-57.34h-70Z"/><path class="cls-1" d="M102.2,139.89H87.53V106.56H102.2Zm-12.67-2H100.2V108.56H89.53Z"/><rect class="cls-1" x="45.86" y="137.89" width="99.33" height="2"/><rect class="cls-1" x="45.64" y="76.89" width="59.78" height="2" transform="translate(-11.06 143.26) rotate(-82.93)"/><rect class="cls-1" x="92.53" y="48.22" width="2" height="59.33"/><rect class="cls-1" x="114.86" y="47.95" width="2" height="59.87" transform="translate(-9.37 16.18) rotate(-7.68)"/><rect class="cls-1" x="57.04" y="60.65" width="76.76" height="2"/><rect class="cls-1" x="52.99" y="82.52" width="84.02" height="2"/></svg>