<svg id="Layer_2" data-name="Layer 2" xmlns="http://www.w3.org/2000/svg" viewBox="0 0 188 189"><defs><style>.cls-1{fill:#fff;}</style></defs><title>icons</title><path class="cls-1" d="M94.28,181.56A87.73,87.73,0,1,1,182,93.83,87.83,87.83,0,0,1,94.28,181.56Zm0-173.45A85.73,85.73,0,1,0,180,93.83,85.81,85.81,0,0,0,94.28,8.11Z"/><rect class="cls-1" x="32.52" y="96.66" width="83.75" height="2" transform="translate(-34.77 153.83) rotate(-79.93)"/><rect class="cls-1" x="113.06" y="55.52" width="2" height="84.08" transform="translate(-15.88 22.44) rotate(-10.51)"/><rect class="cls-1" x="51.72" y="137.89" width="83.33" height="2"/><path class="cls-1" d="M112.82,94.85,93.73,81.23,75.67,94.64,74.48,93,92,80,57.27,55.22h71.48L95.41,80,114,93.22ZM63.52,57.22,93.7,78.75l29-21.53Z"/><path class="cls-1" d="M67.59,139.73,66.52,138l26.27-16.59L48.32,92.83h93.53L96.51,121.47l25.76,16.58-1.09,1.68L94.64,122.65ZM55.13,94.83l39.52,25.44,40.29-25.44Z"/></svg>