<?xml version="1.0" encoding="utf-8"?>
<!-- Generator: Adobe Illustrator 22.1.0, SVG Export Plug-In . SVG Version: 6.00 Build 0)  -->
<svg version="1.1" xmlns="http://www.w3.org/2000/svg" xmlns:xlink="http://www.w3.org/1999/xlink" x="0px" y="0px"
	 viewBox="0 0 979.11 746" style="enable-background:new 0 0 979.11 746;" xml:space="preserve">
<style type="text/css">
	.st0{fill:#FFFFFF;}
	.st1{fill:#414042;}
</style>
<g id="Layer_2">
	<rect class="st0" width="979.11" height="746"/>
</g>
<g id="Layer_1">
	<g>
		<path class="st1" d="M42.69,485.58c3.21,0.15,1.98-2.51,2.3-3.93c3.33-14.63,9.8-27,24.1-33.74c16.66-7.85,34.59-2.98,45.05,11.9
			c2,2.84,1.67,3.98-1.18,6.06c-4.96,3.61-8.36,4.25-13.78-0.29c-13.3-11.1-25.33-8.51-34.54,6.21c-8.78,14-8.16,37.52,1.34,51.1
			c8.81,12.6,25.03,13.65,36.02,1.4c5.45-6.1,7.41-0.76,10.9,1.28c5.01,2.93,2.14,5.77,0.09,8.58
			c-13.57,18.63-43.73,17.94-57.9-1.35c-5.29-7.19-8.3-15.36-10.11-24.05c-0.31-1.49,0.85-4.09-2.3-4.09v-6.73
			c1.61-1.49,1.61-2.99,0-4.48L42.69,485.58z"/>
		<path class="st1" d="M42.69,493.42c1.61,1.5,1.61,2.99,0,4.48V493.42z"/>
		<path class="st1" d="M551.82,315.12l0.5,0.04c6.22,2.36,12.37,4.9,19.03,5.82h0.04c1.5,2.68,4.15,2.95,6.78,3.26l0,0l2.1,1.28
			c1.33,0.67,2.72,1.23,3.98,2.01c12.12,7.45,12.09,7.99,2.93,18.58c-2.9,3.34-5.47,3.5-9.21,1.7c-10.28-5-21.06-8.4-32.57-9.42
			c-22.47-2-49.21,15.04-51.52,41.67c-0.88,8.72-0.14,17.53,2.17,25.99c1.11,3.86-0.15,4.44-3.57,4.5
			c-10.98,0.22-11.8-0.08-15.81-10.6c-7.7-20.3-7.46-40.55,4.04-59.12c8.06-13.03,20.76-21.12,36.1-24.33
			c2.67-0.31,5.6,0.47,7.81-1.81l2.04-0.2l1.22-0.24l2.1-0.26c4.34,1.8,9.22,1.8,13.57,0l2.2,0.13
			C547.56,315.57,549.7,315.23,551.82,315.12z"/>
		<path class="st1" d="M358.79,300.43c0.27-11.39,0.6-11.56,9.94-6.51c20.96,11.34,41.79,22.94,63,33.74
			c9.51,4.83,14.89,11.96,17.27,21.93c1.48,6.17,2.72,12.38,2.96,18.74c0.06,1.53,1.56,3.58-0.43,4.57
			c-1.57,0.78-3.11-0.83-4.52-1.55c-11.58-6.01-23.1-12.12-34.64-18.2c-12.34-6.5-24.5-13.35-37.1-19.4
			c-9.16-4.41-14-11.28-15.16-21.11C359.68,308.56,359.24,304.49,358.79,300.43z"/>
		<path class="st1" d="M656.38,446.23c10.37-0.6,18.73,3.91,26.43,10.25c2.33,1.93,2.8,3.66,0.46,5.83c-0.69,0.62-1.3,1.33-1.81,2.1
			c-2.99,4.66-5.87,6.06-10.69,1.53c-4.33-3.95-9.92-6.24-15.78-6.45c-6.9-0.39-14.53,4.42-15.95,9.98
			c-1.53,6.06,1.53,11.55,8.46,15.34c5.81,3.17,12.26,4.35,18.52,6.17c18.12,5.29,26.43,19.06,21.75,36.78
			c-3.6,13.63-13.8,20.06-26.99,21.45c-13.92,1.47-26.65-1.86-36.84-12.36c-2.88-2.97-3.71-5.32,0.15-7.96
			c0.89-0.68,1.67-1.5,2.3-2.43c2.35-3.08,4.35-3.55,7.7-0.7c6.59,5.6,13.94,10.02,23.1,9.91c8.3-0.1,14.25-4.06,16.4-10.99
			c1.9-6.13-1-11.9-8.27-16.65c-4.45-2.91-9.44-4.35-14.46-5.84c-3.05-0.87-6.04-1.9-8.97-3.1c-14.46-6.08-20.04-15.46-17.5-29.19
			c2.47-13.3,13.67-22.98,27.46-23.7C653.42,446.16,654.91,446.22,656.38,446.23z"/>
		<path class="st1" d="M356.06,412.55c-10.82-1.65-16.91-9.41-22.44-17.69c-2.67-3.99-4.78-8.35-7.43-13.04
			c2.05-0.54,3.72-1.36,5.4-1.37c13.19-0.08,26.38,0,39.58,0.08c1.02,0,2.05,0.7,3.07,1.04c0.11,3.23,2.64,2,4.14,2.01
			c12.94,0.1,25.9,0.07,38.82,0.04c1.8,0,3.78,0.39,5.05-1.48c6.3,0.62,10.63,4.67,14.97,8.72c5.31,4.98,9.48,10.84,13.09,17.09
			c0.7,1.24,3.19,2.8,0.37,4.53c-1.65-1.14-3.54-0.99-5.4-0.99h-83.86C359.56,411.5,357.68,411.35,356.06,412.55z"/>
		<path class="st1" d="M404.61,547.1c-5.87,0.22-1.93-4.95-4.24-7.22c-4.78,5.5-11.01,8.05-18.43,8.04
			c-13.3,0-22.15-6.55-24.68-19.6c-2.26-12.11-2.29-24.54-0.1-36.66c1.68-9.8,7.22-16.96,17.15-19.25
			c9.74-2.25,18.97-0.97,26.41,8.06c1.08-5.52,1.2-11.18,0.36-16.74c-1.72-10.63,2.98-16.37,12.44-19.43c0,30.12,0,60.23,0,90.34
			C413.46,544.4,413.46,544.4,404.61,547.1z M401.26,509.85c0-3.18,0.05-6.35,0-9.52c-0.14-7.23-6.45-13.66-14.34-14.7
			c-8.05-1.03-14.27,2.72-16.26,10.37c-2.48,9.61-2.48,19.68,0,29.29c1.58,6.3,6.3,9.59,12.71,9.8c9.15,0.25,19.6-8.92,17.98-17.41
			C400.86,515.16,401.27,512.46,401.26,509.85L401.26,509.85z"/>
		<path class="st1" d="M477.59,303.36c0.29,7.09-1.3,13.34-3.65,19.5c-1.56,4.09-3.02,4.45-6.05,1.11
			c-14.74-16.29-29.02-33.06-44.66-48.45c-14.2-13.97-12.94-29.25-7.66-45.85c1.33-4.2,2.8-3.92,5.52-0.93
			c16.06,17.84,32.14,35.7,48.45,53.29C475.37,288.3,478.19,295.35,477.59,303.36z"/>
		<path class="st1" d="M338.38,515.21c0,8.58-0.09,17.16,0.05,25.74c0.05,3.06-0.95,4.9-4.1,4.12s-8.03,2.9-9.51-3.45
			c-0.43-1.86-2.26-0.06-3.12,0.48c-4.38,2.88-9.41,4.63-14.64,5.1c-14.27,1.15-24.5-7.65-25.47-22.06
			c-0.97-14.08,9.32-26.03,22.91-26.43c5.6-0.17,11.25-0.27,16.62,1.59c3.45,1.2,4.05-0.06,4.14-3.23
			c0.29-9.61-4.55-14.81-14.33-15.06c-3.36-0.15-6.72,0.38-9.87,1.55c-8.28,3.16-8.18,3.09-11.39-5.5c-0.99-2.64-0.79-4.07,2-5.17
			c10.94-4.31,22.02-5.6,33.31-1.66c8.22,2.88,13.24,10,13.37,18.8C338.48,498.41,338.38,506.81,338.38,515.21z M313.7,511.22
			c-3.45-0.64-7.01-0.46-10.38,0.54c-6.54,1.72-9.55,6.13-8.75,12.3c0.68,6,5.75,10.54,11.79,10.56c5.05,0.13,9.44-1.84,13.55-4.54
			c5.14-3.37,7.23-8.77,5.15-14.98c-1.51-4.54-6.25-2.8-9.56-3.83C314.9,511.1,314.29,511.09,313.7,511.22z"/>
		<path class="st1" d="M511.84,540.25c-6.04,3.66-11.69,6.7-18.5,7c-14.08,0.63-23.8-7.97-24.71-22.3
			c-0.92-13.92,9.02-25.59,22.49-26.21c5.6-0.26,11.24-0.33,16.63,1.46c3.02,1,4.26,0.7,4.38-2.95c0.36-11.12-7.33-17.2-19.6-14.97
			c-2.57,0.46-5.05,1.32-7.36,2.53c-3.05,1.63-5.6,2.56-6.45-1.95c-0.7-3.67-6.3-8.03,1.58-10.63c10.72-3.55,21.41-4.96,32.25-0.7
			c8.4,3.3,12.68,9.8,12.83,18.57c0.29,16.97,0,33.95,0.13,50.94c0,3.16-1.09,4.77-4.2,3.98
			C517.83,544.15,511.9,548.65,511.84,540.25z M500.27,511.2c-3.29-0.92-6.45-0.3-9.49,0.41c-6.94,1.62-10.16,6.12-9.29,12.41
			c0.92,6.6,5.99,10.84,12.85,10.56c4.59-0.19,8.67-1.91,12.45-4.43c5.07-3.39,6.97-8.29,5.03-15.02c-1.4-4.77-6.13-2.95-9.44-3.9
			C501.68,511.13,500.97,511.12,500.27,511.2z"/>
		<path class="st1" d="M860.59,540.19c-7.34,4.78-14.08,7.61-21.92,7c-8.76-0.65-15.4-4.52-18.79-12.72
			c-3.72-9.1-3.96-18.2,2.49-26.42c8.18-10.42,19.43-10.55,31.02-8.59c8.51,1.44,8.62,1.55,7.8-7.05c-0.5-5.17-6.3-9.86-12.82-10.42
			c-5.23-0.54-10.51,0.55-15.09,3.14c-3.03,1.75-4.32,1.23-5.7-2c-3.93-9.21-3.84-9.72,5.82-12.29c8.99-2.39,18.01-3.06,26.94,0.22
			c9.14,3.35,13.62,9.8,13.65,19.6c0.04,16.41-0.18,32.82,0.13,49.22c0.08,4.62-1.46,5.9-5.66,5.29
			C865.19,544.69,860.54,547.12,860.59,540.19z M861.12,519.57c1.95-6.11-2.18-7.54-7.41-8.1c-4.42-0.47-8.86-1.04-13.3-0.08
			c-4.56,0.99-8.56,3.02-9.88,7.92c-1.14,4.03-0.08,8.37,2.8,11.42c3.91,4.38,9.92,5.32,16.98,2.1
			C855.75,530.32,862.36,528.39,861.12,519.57z"/>
		<path class="st1" d="M185.85,545.01c-2.05-0.05-4.1,0-6.15,0.17c-3.5,0.44-6.3,0-6.21-4.84c-6.13,3.68-11.81,6.67-18.64,6.88
			c-14.34,0.43-23.93-8.2-24.55-22.4c-0.62-14.43,9.37-25.62,23.29-26.08c5.6-0.18,11.2-0.06,16.61,1.75
			c2.76,0.93,3.47,0.12,3.82-2.64c1.66-13.1-8.74-17-19.22-15.6c-2.53,0.35-4.95,1.55-7.46,2.23c-1.83,0.5-3.96,3.33-5.35,1.26
			c-2.1-3.16-3.95-6.78-4.26-10.75c-0.04-0.6,1.51-1.55,2.48-1.95c10.5-4.34,21.22-5.68,32.2-2.2c8.22,2.6,13.15,8.19,14.48,16.8
			c-1.23,2.26-0.82,4.73-0.83,7.12C185.99,511.52,185.92,528.26,185.85,545.01z M173.79,519.24c1.66-5.48-1.84-7.39-7.37-7.81
			c-4.45-0.34-8.88-0.88-13.3,0c-6.55,1.32-9.9,5.01-9.87,10.84c0.04,7.53,5,12.29,12.82,12.31
			C165.29,534.64,173.74,527.76,173.79,519.24L173.79,519.24z"/>
		<path class="st1" d="M767.58,509.12c0.27,10.05-2.44,19.21-8.52,27.22c-12.26,16.14-32.06,17-45.75,2.1
			c-14-15.23-13.8-43.57,0.4-58.6c13.85-14.67,34.51-13.09,46.06,3.5C765.1,490.85,767.85,499.9,767.58,509.12z M755.15,509.6
			c0.18-5.27-1.27-10.46-4.16-14.87c-6.36-9.84-16.33-12.55-25.29-6.52c-7.6,5.11-10.61,13.11-10.32,21.77
			c0.32,9.29,3.89,17.44,12.88,22c4.53,2.45,10,2.36,14.45-0.22C751.58,527,754.61,519,755.15,509.6z"/>
		<path class="st1" d="M527.27,271.96c0.22,8.99-3.61,14.32-7.84,19.35c-2.75,3.27-5.89,6.2-8.89,9.25s-4.3,2.1-5.29-1.81
			c-5.29-21.15-10.79-42.23-16.2-63.35c-0.83-3.25-1.92-6.48-2.3-9.8c-1.07-9.32,8.67-25.16,17.35-28.7
			c3.45-1.4,4.12,0.78,4.77,3.37c4.84,18.95,9.7,37.89,14.6,56.83C524.91,262.69,526.33,268.28,527.27,271.96z"/>
		<path class="st1" d="M251.16,544.72c-0.07-14.53-0.25-29.07-0.16-43.6c0.04-6.84-2.38-12.1-8.8-14.77
			c-6.73-2.8-12.73-0.74-18.16,3.65c-2.21,1.79-2.01,4.2-2.01,6.64c0,14.53-0.26,29.08,0.13,43.61c0.15,5.64-2.69,5.89-6.86,5.94
			c-4.17,0.05-7.07-0.11-7-5.78c0.29-21.06,0.13-42.12,0.11-63.18c0-3.03-0.46-6.54,4.26-5.6c3.57,0.7,9.8-3.39,9.53,5.45
			c9.92-6.64,20.21-8.32,30.51-2.44c7.44,4.25,10.86,11.49,11.54,19.98c-1.13,2.1-0.81,4.35-0.81,6.55
			c0,10.58,0.11,21.16-0.04,31.73C263.24,545.49,265.95,545.21,251.16,544.72z"/>
		<path class="st1" d="M594.31,215.5c-1.51,20.3-3.05,41.08-4.6,61.86c-0.34,4.59-2.58,8.04-6.3,10.71
			c-6.02,4.35-12.99,6.41-19.94,8.6c-3.12,0.98-3.96,0-3.68-3.22c1.58-18.16,3.54-36.31,4.28-54.51c0.48-11.37,5.91-18.5,15.3-23.4
			c3.32-1.69,6.75-3.16,10.27-4.4C593.2,209.76,595.64,210.28,594.31,215.5z"/>
		<path class="st1" d="M559.66,476.81c4.31-1.55,7.97-4.45,12.73-5.22c16.5-2.64,29.84,8.02,30.1,24.73
			c0.22,14.75-0.06,29.5,0.1,44.24c0.04,3.84-1.18,5.23-5.12,5.24c-8.83,0-8.83,0.21-8.83-8.6c0-12.51-0.17-25.02,0-37.52
			c0.11-6.88-3.91-12.38-11.07-14.08c-7.56-1.79-15.1,2.1-17.86,8.81c-3.72-0.39-1.57,2.51-1.58,3.5
			c-0.19,13.43-0.18,26.85-0.1,40.29c0,3.46-0.67,5.66-4.87,5.73c-4.4,0.07-5.31-2.05-5.29-5.87c0.1-19.77,0.14-39.55,0-59.31
			c-0.04-4.7,2.2-5.38,6.2-5.6C557.29,472.97,557.32,476.38,559.66,476.81z"/>
		<path class="st1" d="M907.99,473.42c0.29,1.62,0.57,3.24,0.97,5.53c6.5-7.61,14.32-8.59,23.05-6.3c3.84,1.01,5.43,2.8,3.71,6.73
			c-0.43,1.04-0.69,2.14-0.77,3.26c-0.4,4.37-1.91,5.6-6.34,3.47c-9.49-4.56-21.52,3.64-20.46,14.39
			c1.3,13.13,0.17,26.48,0.38,39.72c0.06,3.96-0.77,5.76-5.2,5.6c-10.21-0.4-8.65,0.85-8.69-8.66c-0.08-19.41,0-38.82,0-58.23
			c0-2.21-0.43-4.48,0.58-6.62v70.19c0.91-0.36,1.05-0.7,1.05-1.07c0-19.02-0.06-38.03,0.08-57.05
			C896.44,473.49,893.85,472.75,907.99,473.42z"/>
		<path class="st1" d="M799.09,443.25v27.95c0,23.33-0.24,46.67,0.16,70c0.11,6.23-2.77,6.17-7.37,6.36
			c-5.15,0.2-6.56-1.4-6.51-6.55c0.25-27.44,0.25-54.87,0-82.31c-0.06-5.48,1.01-9.28,6.43-11.31
			C793.99,446.56,795.95,445.07,799.09,443.25z"/>
		<path class="st1" d="M436.93,543.95c0-23.62,0.01-47.25,0.04-70.87c1.06-0.34,2.14-0.61,3.23-0.8c8.59-0.9,9.18-0.36,9.18,8.35
			c0,18.43,0,36.86,0,55.3c0,9.39-0.84,10.1-10.33,8.71C438.32,544.47,437.61,544.23,436.93,543.95z"/>
		<path class="st1" d="M453.08,453.32c-0.04,5.31-4,9.45-9.01,9.42c-5.25,0-9.51-4.25-9.51-9.51c0-0.06,0-0.11,0-0.17
			c0.14-5.1,4.36-9.14,9.46-9.06c4.97-0.04,9.03,3.96,9.06,8.93C453.09,453.06,453.09,453.19,453.08,453.32z"/>
		<path class="st1" d="M559.66,476.81c-2.34-0.43-2.37-3.84-5.6-3.68c-4,0.2-6.24,0.89-6.2,5.6c0.16,19.77,0.12,39.55,0,59.31
			c0,3.82,0.9,5.94,5.29,5.87c4.2-0.06,4.9-2.27,4.87-5.73c-0.08-13.43-0.09-26.86,0.1-40.29c0-0.97-2.1-3.86,1.58-3.5
			c0,16.13,0,32.27,0,48.4c-0.51,0.85-1.02,1.71-1.53,2.56c-11.27,2.32-11.7,2-11.7-9.01c0-19.19,0-38.37,0-57.55
			c0-2.21-0.44-4.48,0.61-6.6c4.2,0.88,8.95-1.79,12.64,2.1C559.69,475.12,559.67,475.96,559.66,476.81z"/>
		<path class="st1" d="M404.61,547.1c8.85-2.7,8.85-2.7,8.85-12.43c0-30.11,0-60.21,0-90.31c2.51,1.53,1.3,4,1.3,5.99
			c0.1,29.85,0.07,59.71,0.07,89.56c0,7.57,0,7.58-7.5,7.45C406.46,547.31,405.54,547.18,404.61,547.1z"/>
		<path class="st1" d="M436.93,543.95c0.68,0.29,1.38,0.52,2.1,0.7c9.49,1.4,10.33,0.7,10.33-8.71c0-18.42,0-36.85,0-55.3
			c0-8.72-0.59-9.25-9.18-8.35c-1.1,0.19-2.18,0.45-3.23,0.8c3.88-3.33,8.3-1.4,12.47-1.08c1.49,0.11,1.07,2.14,1.07,3.37
			c0,22.11,0,44.21,0.08,66.32c0,3.21-1.2,4.64-4.2,4.1C443.23,545.22,439.43,547.8,436.93,543.95z"/>
		<path class="st1" d="M356.06,412.55c1.63-1.2,3.5-1.05,5.38-1.05h83.84c1.86,0,3.75-0.15,5.4,0.99c-11.5,0.13-23,0.38-34.51,0.36
			C396.13,412.83,376.09,412.65,356.06,412.55z"/>
		<path class="st1" d="M422.25,382.15c-1.27,1.87-3.26,1.47-5.05,1.48c-12.94,0-25.9,0.06-38.82-0.04c-1.5,0-4.03,1.22-4.14-2.01
			h32.69c3.49,1.4,7.38,1.43,10.88,0.06L422.25,382.15z"/>
		<path class="st1" d="M907.99,473.42c-14.15-0.7-11.56,0.07-11.63,10.96c-0.13,19.02-0.06,38.03-0.08,57.05
			c0,0.36-0.14,0.7-1.05,1.07v-70.19C899.54,472.06,903.99,470.19,907.99,473.42z"/>
		<path class="st1" d="M251.16,544.72c14.79,0.49,12.08,0.77,12.26-11.84c0.15-10.57,0-21.15,0.04-31.73c0-2.21-0.32-4.47,0.81-6.55
			c0.11,15.77,0.18,31.54,0.38,47.31c0,2.89-1.06,4.31-3.89,3.82C257.57,545.18,254.14,547.07,251.16,544.72z"/>
		<path class="st1" d="M185.85,545.01c0.07-16.75,0.16-33.49,0.25-50.24c0-2.39-0.39-4.86,0.83-7.12
			c0.09,18.2,0.18,36.42,0.26,54.66C187.2,543.38,187.3,544.61,185.85,545.01z"/>
		<path class="st1" d="M571.35,320.98c-6.66-0.9-12.81-3.46-19.03-5.82C558.99,315.81,565.46,317.79,571.35,320.98z"/>
		<path class="st1" d="M543.48,314.04c-4.34,1.8-9.22,1.8-13.57,0C534.35,312.8,539.04,312.8,543.48,314.04z"/>
		<path class="st1" d="M559.71,474.28c-3.7-3.86-8.46-1.2-12.64-2.1c3.4-1.23,6.91-0.44,10.37-0.57
			C559.13,471.57,560.4,472.15,559.71,474.28z"/>
		<path class="st1" d="M417.8,381.65c-3.5,1.36-7.39,1.34-10.88-0.06C410.56,381.12,414.16,380.65,417.8,381.65z"/>
		<path class="st1" d="M578.17,324.27c-2.63-0.31-5.29-0.58-6.78-3.26C573.92,321.41,576.28,322.54,578.17,324.27z"/>
		<path class="st1" d="M524.56,314.72c-2.21,2.28-5.14,1.51-7.81,1.81C519.02,314.92,521.83,314.26,524.56,314.72z"/>
		<path class="st1" d="M551.82,315.12c-2.1,0.11-4.26,0.45-6.15-0.95C547.87,313.5,549.86,314.25,551.82,315.12z"/>
		<path class="st1" d="M558.21,545.37c0.5-0.85,1.02-1.71,1.53-2.56C560.23,544.27,559.95,545.26,558.21,545.37z"/>
		<path class="st1" d="M580.23,325.55l-2.1-1.28L580.23,325.55z"/>
		<path class="st1" d="M527.82,314.25l-1.22,0.24L527.82,314.25z"/>
	</g>
</g>
</svg>
