<?xml version="1.0" encoding="utf-8"?>
<!-- Generator: Adobe Illustrator 22.1.0, SVG Export Plug-In . SVG Version: 6.00 Build 0)  -->
<svg version="1.1" xmlns="http://www.w3.org/2000/svg" xmlns:xlink="http://www.w3.org/1999/xlink" x="0px" y="0px"
	 viewBox="0 0 979.11 746" style="enable-background:new 0 0 979.11 746;" xml:space="preserve">
<style type="text/css">
	.st0{fill:#FFFFFF;}
	.st1{fill:#414042;}
</style>
<g id="Layer_2">
	<rect class="st0" width="979.11" height="746"/>
</g>
<g id="Layer_1">
	<g>
		<path class="st1" d="M493.01,440.33c-107.76,28.82-206.43,70.84-287.84,121H742.5c28.55,0,51.69-23.14,51.69-51.69l0,0V402.04
			C743.28,401.15,624.13,405.26,493.01,440.33z"/>
		<path class="st1" d="M505.43,257.77c-0.28,2.12-0.57,4.38-1,6.5c-1.14,5.13-4,13.74-5.71,18.88c-2.29,6.95-4.58,13.89-7,20.84
			h27.71c-2.43-7.25-5-14.5-7.43-21.6C507.43,268.65,506.43,265.18,505.43,257.77z"/>
		<path class="st1" d="M236.6,184.67c-28.55,0-51.69,23.14-51.69,51.69l0,0v307.13c84.87-53.31,188.36-97.88,301.42-128.12
			c92.24-24.67,178.25-34.13,234.16-37.72c33.16-2.13,58.21-2.4,73.7-2.23V184.67H236.6z M297.24,338.04
			c-2.23,2.23-4.78,4.11-7.56,5.59c-7.85,4.23-16.61,4.53-19.48,4.53c-2.27,0-10.73-0.3-18-3c-8.46-3.17-15.25-10.27-17.06-12.09
			l15.4-16.91c5,5.59,11,12.38,19.79,12.38c7,0,13-5.13,13-12.38c0.04-2.18-0.59-4.31-1.8-6.12c-2.87-4.38-9.82-7.25-13.9-9.06
			c-5.42-2.57-10.58-5.65-15.41-9.21c-7.43-5.69-11.79-14.51-11.79-23.87c-0.02-6.26,1.88-12.37,5.44-17.52
			c9.36-13.44,24.17-14.2,29.45-14.2c6.03,0.1,11.98,1.39,17.52,3.78c7,3.32,11.63,8.76,13.3,10.57l-14.81,16.62
			c-1.2-1.66-6.79-10.12-15.7-10.12c-5.74,0-11,3.77-11,9.82c0.15,8.3,10.12,12.08,15.25,14.5c10.12,4.38,13.15,6.19,17.38,9.66
			c4.07,3.48,10.27,10,10.27,22.66C307.51,326.96,301.01,334.51,297.24,338.04z M420.98,345.74l-6.08-51.35c-0.44-5-1-10-1.31-15
			c-0.14-3.62-0.14-7.25-0.14-10.87c-2.46,9.06-5.21,18.12-8.11,27l-16.91,50.17h-13.92l-18.53-53.47c-1.6-4.38-3-8.76-4.2-13.29
			c-1-3.17-1.74-6.34-2.61-9.67c0,4.08-0.14,8-0.29,12.09c-0.43,5.13-1,10.27-1.59,15.4l-5.36,48.94h-21.28l14.34-106.65h22.87
			l15.2,45.47c2,6.34,4.2,12.53,6.08,19c0.87,3,1.59,6,2.31,9.06c1.45-5.13,2.9-10.12,4.35-15.25c1.74-5.44,3.62-10.88,5.35-16.32
			l14.19-42h22.73l14.48,106.64L420.98,345.74z M534.53,345.74l-7.86-21.6h-41.86l-7.38,21.55h-23.49l39.58-106.65h23.3
			l41.43,106.64L534.53,345.74z"/>
	</g>
</g>
</svg>
