<?xml version="1.0" encoding="utf-8"?>
<!-- Generator: Adobe Illustrator 22.1.0, SVG Export Plug-In . SVG Version: 6.00 Build 0)  -->
<svg version="1.1" xmlns="http://www.w3.org/2000/svg" xmlns:xlink="http://www.w3.org/1999/xlink" x="0px" y="0px"
	 viewBox="0 0 979.11 746" style="enable-background:new 0 0 979.11 746;" xml:space="preserve">
<style type="text/css">
	.st0{fill:#FFFFFF;}
	.st1{fill:#414042;}
</style>
<g id="Layer_2">
	<rect class="st0" width="979.11" height="746"/>
</g>
<g id="Layer_1">
	<g>
		<path class="st1" d="M510.2,472.34c-137.73,0-275.46,0.01-413.19,0.04c-11.69,0-23.11-0.98-34-5.58
			c-16.46-6.95-25.41-19.35-25.56-37.2c-0.28-37.1-0.28-74.2,0-111.31c0.17-18.7,9.87-31.28,27.51-37.42
			c6.87-2.44,14.1-3.71,21.39-3.75c38.44-0.04,76.88-0.05,115.32-0.05c6.05,0,6.58,0.59,6.62,6.66c0,4.04-0.05,8.02,0,12.02
			c0,3.15-1.47,4.66-4.61,4.61c-1.63,0-3.26,0-4.9,0c-38.74,0-77.47,0-116.21,0c-5.05-0.04-10.09,0.34-15.07,1.15
			c-15.42,2.63-22.87,11.21-22.94,26.85c-0.11,30.13,0,60.26-0.05,90.38c0.02,4.01,0.28,8.01,0.79,11.98
			c1.79,14.61,9.88,23.78,23.9,27.79c6.71,1.94,13.66,2.94,20.65,2.98c15.14,0.06,30.27,0.09,45.41,0.08c264.48,0,528.96,0,793.43,0
			c2.08,0,4.16,0.11,6.23,0c3.84-0.21,6.23,0.78,6.21,5.38s-2.29,5.46-6.18,5.44c-19.15-0.08-38.29,0-57.43,0L510.2,472.34z"/>
		<path class="st1" d="M308.89,313.89c-1.18-0.11-2.37-0.1-3.55,0.03c-4.11,0.84-6.05-0.61-7.29-4.8
			c-3.32-11.28-20.45-16.06-29.52-8.53c-5,4.15-4.9,10.03,0.4,13.93c4.35,3.21,9.48,4.88,14.43,6.87
			c8.68,3.49,17.32,7.02,25.47,11.68c26.48,15.14,23.16,47.91,4.77,63.32c-10.68,8.95-23.09,12.32-36.6,13.04
			c-15.27,0.81-30.46,0.42-44.39-6.6c-13.45-6.79-19.9-18.53-20.77-33.46c-0.23-3.86,1.22-5.7,5.29-5.88
			c8.74-0.4,17.49-1.06,26.19-1.75c4.2-0.34,6.35,1.25,6.81,5.55c0.82,7.6,4.55,13.18,12.17,15.37c8.42,2.43,16.63,1.9,23.54-3.95
			c6.51-5.5,5.38-14.09-2.09-18.65c-5.62-3.42-11.87-5.41-17.96-7.75c-7.33-2.86-14.5-6.09-21.48-9.7
			c-23.21-11.84-21.67-41.92-5.28-56.03c5.98-5.18,13.18-8.76,20.91-10.42c19.5-4.27,38.67-3.63,56.99,5
			c10.52,4.95,16.46,13.75,18.97,24.96c1.1,4.92,0.09,6.33-4.82,6.61c-7.4,0.42-14.8,0.67-22.23,1.02V313.89z"/>
		<path class="st1" d="M903.54,313.7c5.64,0,11.27-0.05,16.9,0c12.47,0.14,19.31,5.38,21.1,16.03c1.82,10.83-4.04,20.81-14.47,24.68
			c-6.31,2.34-6.3,2.33-2.69,7.88c4.14,6.38,7,13.38,9.92,20.35c1.35,3.16,0.67,4.84-2.99,4.79c-4.89-0.05-9.78-0.07-14.67,0
			c-3.08,0-4.86-1.41-6-4.26c-2.42-6.05-5.02-12.04-7.67-18c-0.81-1.75-1.81-3.4-2.99-4.92c-1.3-1.72-3.12-2.9-5.38-2.53
			c-2.43,0.39-2.56,2.66-2.95,4.48c-1.53,6.95-3.03,13.9-4.38,20.88c-0.58,2.99-2.19,4.35-5.18,4.34c-4.3,0-8.59,0.08-12.89,0
			c-4.62-0.09-5.21-0.84-4.26-5.38c3.29-15.66,6.6-31.32,9.94-46.97c1.2-5.66,2.48-11.29,3.58-16.97c0.61-3.17,2.32-4.49,5.53-4.44
			C890.49,313.77,897.01,313.7,903.54,313.7L903.54,313.7z M903.85,343.73c4.26-0.12,8.66,0.12,12.43-2.29
			c2.94-1.87,4.63-4.65,3.8-8.27c-0.83-3.62-3.73-4.25-6.85-4.36c-2.81-0.1-5.61-0.14-8.41-0.11c-5.28,0.05-10.52,8.55-8.31,13.42
			c0.43,0.97,1.4,1.6,2.46,1.6C900.61,343.79,902.23,343.73,903.85,343.73z"/>
		<path class="st1" d="M453.76,357.34c-14.03,0.15-11.61-1.52-14.59,11.91c-1,4.49-2.02,8.98-2.82,13.5
			c-0.57,3.11-2.15,4.71-5.38,4.71c-4.45-0.06-8.9,0-13.35,0c-3.51,0-4.71-1.69-3.93-5.17c4.63-21.3,9.2-42.62,13.72-63.95
			c0.67-3.06,2.19-4.71,5.47-4.59c4.3,0.11,8.6,0.09,12.91,0c3.9-0.08,4.92,1.7,4.04,5.33c-1.2,5.04-2.12,10.16-3.24,15.23
			c-0.81,3.65,0.56,5.38,4.29,5.38c5.04,0,10.09-0.05,15.13,0c2.99,0,4.62-1.35,5.23-4.29c1.19-5.81,2.64-11.57,3.84-17.38
			c0.61-2.96,2.21-4.3,5.23-4.24c4.3,0.09,8.61,0.16,12.91-0.03c4.29-0.2,5.06,1.58,4.21,5.43c-3.95,17.96-7.74,35.95-11.59,53.94
			c-0.67,3.05-1.51,6.05-1.96,9.13c-0.54,3.76-2.44,5.44-6.26,5.31c-4.15-0.14-8.31-0.08-12.45,0c-3.54,0.05-4.8-1.42-3.97-4.98
			c1.49-6.36,2.79-12.78,4.11-19.14c1.1-5.38,0.64-5.9-4.86-5.98C458.21,357.32,455.99,357.35,453.76,357.34z"/>
		<path class="st1" d="M821.46,387.44c-8.74,0-17.49,0.07-26.27,0c-4.86-0.05-5.53-0.89-4.53-5.66c4.44-21.05,9-42.07,13.4-63.13
			c0.73-3.52,2.46-4.98,6.05-4.96c16.47,0.1,32.94,0.1,49.42,0c4.07,0,5.1,1.58,4.36,5.49c-1.96,10.38-1.84,10.4-12.33,10.4
			c-7.4,0-14.84-0.05-22.26,0.05c-4.47,0.07-8.07,5.57-6.59,9.76c0.81,2.26,2.83,1.85,4.53,1.86c8.16,0.06,16.33,0,24.49,0.06
			c5.45,0.05,5.9,0.67,4.75,6.09c-0.28,1.3-0.67,2.6-0.84,3.92c-0.5,3.58-2.54,4.98-6.11,4.94c-8.45-0.11-16.91-0.06-25.37,0
			c-4.86,0.04-9.82,8.2-7.75,12.68c0.95,2.05,2.97,1.68,4.71,1.69c9.5,0.05,18.99,0,28.49,0.05c5.72,0.03,6.23,0.63,5,6.28
			c-2.41,11.06-0.67,10.47-12.68,10.48h-20.48L821.46,387.44z"/>
		<path class="st1" d="M598.44,387.45c-8.45,0-16.91,0.05-25.37,0c-5.47-0.04-6.13-0.8-5.04-6.01c4.38-20.89,8.91-41.77,13.23-62.68
			c0.79-3.8,2.69-5.11,6.42-5.08c16.32,0.11,32.63,0,48.95,0.07c4.9,0,5.38,0.75,4.5,5.61c-1.87,10.24-1.87,10.23-12.06,10.24
			c-7.57,0-15.13-0.05-22.7,0.05c-4.26,0.05-8,6.05-6.29,9.93c0.83,1.91,2.64,1.69,4.22,1.69c8.31,0.05,16.62,0,24.92,0.07
			c5.1,0.04,5.63,0.77,4.59,5.86c-0.3,1.45-0.75,2.87-0.98,4.34c-0.52,3.36-2.49,4.71-5.84,4.71c-8.31-0.06-16.61,0-24.88,0
			c-5.44,0.04-10.43,7.51-8.39,12.53c0.87,2.13,2.86,1.84,4.59,1.86c9.64,0.05,19.29,0,28.92,0.05c5.38,0.03,5.98,0.71,4.71,6.09
			c-2.61,11.27-0.67,10.65-13.03,10.67C612.08,387.47,605.26,387.47,598.44,387.45z"/>
		<path class="st1" d="M380.39,312.71c8.85-0.2,17.32,2.05,23.91,9.35c2.51,2.75,4.36,6.03,5.43,9.59c1.35,4.53,0.48,5.95-4.17,6.73
			c-2.02,0.33-4.15,0.32-6.19,0.67c-4.67,0.85-8.57,1.08-10.57-4.82c-1.35-3.95-6.56-5.69-10.98-4.84
			c-3.39,0.61-6.49,2.29-8.86,4.79c-7.4,7.85-10.13,17.42-8.86,27.87c1.1,9.03,11.32,12.78,18.83,7.31
			c1.53-1.12,3.21-2.52,3.91-4.17c2.57-6.05,6.95-7.01,12.67-5.38c1.73,0.41,3.49,0.71,5.26,0.89c6.27,1,6.88,2.14,4.08,7.72
			c-10.8,21.57-44.18,27.3-59.95,10.32c-5.26-5.66-7.21-12.6-7.34-20c-0.2-11.79,3.17-22.62,10.56-31.88
			C356.16,316.79,367.06,312.49,380.39,312.71z"/>
		<path class="st1" d="M760.29,313.69c9.64,0,19.27,0,28.92,0c5.29,0,5.89,0.67,4.82,5.64c-2.99,13.92-0.75,12.06-14.8,12.21
			c-13.52,0.13-11.22-1.24-14.12,11.47c-2.91,12.71-5.68,25.45-8.16,38.25c-0.91,4.71-3.11,6.61-7.83,6.23
			c-3.36-0.27-6.81,0-10.22-0.06c-5.28-0.07-5.82-0.67-4.75-5.69c2.91-13.63,5.82-27.24,8.74-40.85c0.34-1.59,0.67-3.19,1-4.78
			c0.67-3.13-0.73-4.48-3.73-4.51c-4.45-0.05-8.89-0.13-13.34-0.06c-3.43,0.05-4.51-1.48-3.77-4.71
			c3.46-15.17,0.67-12.95,15.39-13.12C745.77,313.62,753.02,313.69,760.29,313.69z"/>
		<path class="st1" d="M686.22,313.71c9.64,0,19.27-0.06,28.92,0c4.81,0.04,5.53,0.92,4.57,5.64c-2.86,14.12-0.92,12.01-14.28,12.17
			c-13.9,0.17-11.66-1.3-14.53,11.52c-2.86,12.82-5.74,25.76-8.33,38.69c-0.81,4.07-2.61,5.97-6.83,5.74
			c-3.85-0.21-7.71-0.13-11.56,0c-3.97,0.11-5.25-1.43-4.34-5.43c3.24-14.46,6.29-28.96,9.37-43.46c1.39-6.52,1.02-6.95-5.47-7.01
			c-3.71,0-7.4,0-11.12-0.05c-2.98,0-4.41-1.22-3.74-4.43c3.3-15.79,0.85-13.15,15.1-13.37
			C671.38,313.6,678.78,313.71,686.22,313.71L686.22,313.71z"/>
		<path class="st1" d="M940.1,449.89c-2.47,1.38-4.29,1.01-6.05,1.01c-281.84,0-563.68,0.02-845.52,0.05
			c-7.09,0-13.9-0.79-20.22-4.28c-8.23-4.53-12.93-11.43-12.97-20.85c-0.15-31.9-0.15-63.81,0-95.72
			c0.08-10.05,5.74-16.19,15.82-17.98c3.8-0.64,7.66-0.95,11.51-0.92c39.33-0.06,78.66-0.06,117.99,0c2.23,0,6.29-0.85,6.23,1.38
			c-0.08,3.28-4.04,1.8-6.25,1.8c-39.63,0.1-79.26,0.11-118.88,0.05c-5.21,0-10.4,0.1-15.25,2.43c-5.56,2.69-8.74,6.83-8.74,13.25
			c0.04,31.76-0.05,63.52,0.08,95.28c0.05,11.06,8.07,19.64,20.41,22.61c4.38,1.06,8.82,1,13.28,1h642.02c66.49,0,132.98,0,199.47,0
			C935.17,449.01,937.39,448.63,940.1,449.89z"/>
		<path class="st1" d="M527.88,387.45c-7.86,0-15.72,0.05-23.58,0c-5.19-0.05-5.88-0.84-4.85-5.77c4.38-20.9,8.9-41.76,13.21-62.68
			c0.81-3.94,2.76-5.54,6.73-5.33c3.7,0.21,7.4,0,11.12,0.06c5.16,0.09,5.78,0.84,4.71,5.83c-3,14.22-6.09,28.41-9.09,42.63
			c-1.41,6.73-0.75,7.46,6.21,7.49c7.71,0.03,15.42,0.13,23.13,0c4.04-0.08,5.3,1.51,4.42,5.38c-3.13,13.81-0.67,12.31-14.68,12.41
			c-5.78,0.04-11.57,0-17.35,0L527.88,387.45z"/>
	</g>
</g>
</svg>
