<?xml version="1.0" encoding="utf-8"?>
<!-- Generator: Adobe Illustrator 22.1.0, SVG Export Plug-In . SVG Version: 6.00 Build 0)  -->
<svg version="1.1" xmlns="http://www.w3.org/2000/svg" xmlns:xlink="http://www.w3.org/1999/xlink" x="0px" y="0px"
	 viewBox="0 0 979.11 746" style="enable-background:new 0 0 979.11 746;" xml:space="preserve">
<style type="text/css">
	.st0{fill:#FFFFFF;}
	.st1{fill:#414042;}
</style>
<g id="Layer_2">
	<rect class="st0" width="979.11" height="746"/>
</g>
<g id="Layer_1">
	<g>
		<path class="st1" d="M521,414.39c-1.74,7.55-3.78,14.89-5.66,22.22c-3.34,12.63-6.61,25.34-9.88,38.05
			c-0.44,1.74-1.09,2.47-3.05,2.4c-5.01-0.15-10.09-0.15-15.1,0c-1.82,0.07-2.4-0.58-2.83-2.25c-6.97-27.52-13.94-55.04-21.06-82.49
			c-0.58-2.18-0.29-2.83,2.03-2.69c4.36,0.15,8.79,0.15,13.14,0c1.89-0.07,2.69,0.51,3.12,2.32c4.28,17.86,8.64,35.65,12.85,53.44
			c0.58,2.47,0.87,4.94,1.31,7.55c1.38-1.6,1.02-3.56,1.38-5.3c4.21-18.88,10.02-37.32,14.81-55.99c0.44-1.6,1.23-2.03,2.76-1.96
			c4.36,0.07,8.79,0.15,13.14,0c2.18-0.07,3.05,0.73,3.56,2.69c5.08,19.75,11.47,39.14,15.68,59.18c0,0.07,0.15,0.15,0.58,0.73
			c0.58-2.76,1.02-5.23,1.6-7.62c4.21-17.65,8.42-35.22,12.71-52.86c0.29-1.31,0.73-2.11,2.32-2.11c5.01,0.07,10.02,0,15.32,0
			c-4.07,16.05-8.06,31.8-12.05,47.49c-3.12,12.34-6.39,24.69-9.44,37.11c-0.51,2.11-1.16,2.9-3.41,2.83
			c-5.37-0.15-10.75-0.15-16.12,0c-1.52,0-2.32-0.36-2.69-1.96c-4.65-19.17-10.6-38.05-14.45-57.44
			C521.22,416.56,521.14,415.48,521,414.39z"/>
		<path class="st1" d="M332.42,532.24c39.79,54.32,92.8,83.72,160.55,80.96c67.6-2.76,117.92-36.31,153.36-93.31
			c0.36,10.75-24.4,48.87-43.57,66.8c-19.68,18.52-43.5,32.02-69.49,39.43C456.3,648.13,368.65,612.55,332.42,532.24z"/>
		<path class="st1" d="M764.11,443.14c0-10.31,0-20.55,0-30.86c0-1.16-0.58-2.76,1.67-2.76c11.47,0.07,22.95-1.02,34.42,0.51
			c16.56,2.18,26.36,13.36,26.5,29.99c0,4.07,0,8.06-0.94,12.05c-3.49,13.87-13.14,21.13-26.5,24.11c-11.11,2.4-22.44,0.8-33.69,0.8
			c-2.03,0-1.45-1.6-1.45-2.61C764.11,463.91,764.11,453.52,764.11,443.14z M787.85,423.17c-1.52,0-3.05,0-4.57,0
			c-1.52,0-2.11,0.65-2.11,2.18c0.07,11.84,0.07,23.6,0,35.44c0,1.23,0.22,2.11,1.74,2.25c12.2,1.16,24.91-2.11,26.07-19.02
			c0.65-10.02-3.92-17.5-12.34-19.97C793.74,423.24,790.76,422.95,787.85,423.17z"/>
		<path class="st1" d="M252.54,408.5c7.48,0.15,15.9,2.18,22.58,8.86c8.21,8.13,10.24,18.44,9.08,29.34
			c-2.98,29.05-33.69,37.54-53.73,27.67c-11.11-5.45-15.25-15.47-16.05-27.08C212.9,425.06,228.66,408.36,252.54,408.5z
			 M232.5,443.21c0.07,1.31,0.07,2.61,0.22,3.92c0.87,9.15,6.24,15.03,14.52,15.98c8.21,1.02,15.83-4.07,18.08-11.98
			c1.6-5.37,1.52-11.11-0.29-16.48c-2.32-7.12-7.7-11.11-15.18-11.33c-7.04-0.22-13.36,4.07-15.83,10.6
			C233.01,436.9,232.43,440.09,232.5,443.21L232.5,443.21z"/>
		<path class="st1" d="M613.65,408.5c10.67,0.22,21.42,3.49,27.45,14.45c7.26,13.07,7.33,26.79-0.8,39.57
			c-7.99,12.56-20.55,16.63-34.93,15.54c-10.6-0.87-19.75-4.94-24.83-14.74C568.2,439.37,580.83,408.79,613.65,408.5z M594.12,443
			c-0.07,2.83,0.29,5.66,1.09,8.35c2.11,7.41,7.33,11.62,14.67,11.84c7.62,0.29,13.8-3.7,16.48-10.53
			c1.82-4.72,1.89-9.59,1.23-14.52c-1.31-8.79-7.19-14.3-15.76-14.81c-7.77-0.44-14.67,4.72-16.85,12.78
			C594.34,438.35,593.98,440.67,594.12,443z"/>
		<path class="st1" d="M351.81,326.74l54.32-213.27l0.36,0.07c-1.16,9.66-2.4,19.24-3.63,28.9c-2.32,18.23-4.65,36.45-6.97,54.61
			c-2.11,16.34-4.14,32.75-6.17,49.09c-2.11,16.34-4.36,32.75-6.1,49.09c-0.51,4.79-2.47,7.55-6.32,10.09
			c-7.99,5.52-15.47,11.84-22.22,18.88c-0.87,1.02-1.67,2.03-2.32,3.2L351.81,326.74z"/>
		<path class="st1" d="M683.65,172.07c-9.08,71.6-18.15,143.27-27.23,214.86c-1.31-0.22-1.23-1.45-1.52-2.25
			c-4.43-10.89-9.95-21.35-16.48-31.22c-0.94-1.31-1.23-3.05-0.73-4.57c14.81-58.09,29.63-116.18,44.44-174.35
			c0.22-0.94,0.51-1.82,0.8-2.69L683.65,172.07z"/>
		<path class="st1" d="M709.29,476.98c-6.61,0-12.63-0.07-18.66,0.07c-1.74,0-2.47-0.87-3.27-2.11
			c-4.36-6.97-8.71-13.87-13.07-20.77c-0.58-1.02-1.45-1.89-2.47-2.47v7.62c0,5.01-0.15,10.09,0.07,15.1
			c0.07,2.25-0.73,2.76-2.76,2.69c-4.07-0.15-8.13-0.15-12.13,0c-1.74,0.07-2.25-0.58-2.25-2.25c0.07-20.99,0.07-42.04,0-63.03
			c0-1.38,0.22-2.25,1.96-2.25c10.6,0,21.28-1.09,31.8,0.58c7.19,1.09,13.51,4.21,16.05,11.76c2.32,6.97,1.6,13.58-3.27,19.39
			c-2.25,2.69-5.3,4.65-8.64,5.66c-2.47,0.73-2.83,1.45-1.23,3.63c5.59,7.91,11.04,16.05,16.48,24.04
			C708.2,475.24,708.56,475.89,709.29,476.98z M671.82,430.65v2.32c0,7.04,1.38,8.06,8.42,6.24c4.5-1.16,6.9-3.7,7.33-7.7
			c0.51-5.74-3.27-9.08-10.38-9.22c-5.37-0.07-5.37-0.07-5.37,5.08L671.82,430.65L671.82,430.65z"/>
		<path class="st1" d="M171.36,478.29c-4.87,0.22-9.59-0.51-14.38-1.31c-1.74-0.29-2.61-1.02-2.4-2.98
			c0.36-3.7,0.65-7.41,0.73-11.11c0.07-1.96,0.58-2.4,2.54-1.74c6.17,1.96,12.63,2.69,19.1,2.25c2.61-0.15,5.23-1.02,7.41-2.47
			c4.57-2.98,5.88-9.08,2.9-13.72c-0.58-0.87-1.23-1.6-2.03-2.25c-2.69-2.18-5.81-3.34-8.93-4.72c-3.63-1.52-7.33-2.9-10.82-4.65
			c-8.79-4.36-13.22-11.4-13.07-21.28c0.15-10.09,4.79-17.35,13.58-21.93c8.57-4.43,17.86-4.57,27.23-3.78
			c2.69,0.22,6.39-0.36,7.7,1.52s0.29,5.23,0.15,7.99c-0.15,2.03,0.22,4.72-0.87,6.03c-1.09,1.31-3.49-0.44-5.37-0.73
			c-5.52-0.87-11.11-1.52-16.56,0c-4.28,1.16-7.12,3.78-7.7,8.35c-0.58,4.36,1.89,7.19,5.3,9.37c3.2,1.96,6.68,3.2,10.09,4.65
			c2.11,0.87,4.28,1.74,6.32,2.69c8.21,3.99,14.3,9.73,14.74,19.53c0.58,11.18-3.92,19.82-13.58,25.41
			C186.61,477.41,179.13,478.65,171.36,478.29z"/>
		<path class="st1" d="M465.45,476.98c-6.75,0-12.71-0.07-18.73,0.07c-1.82,0-2.47-0.94-3.27-2.18
			c-4.14-6.61-8.21-13.14-12.42-19.68c-0.87-1.38-1.74-2.69-3.2-4.87c0,8.35-0.15,15.68,0.07,23.09c0.07,3.12-0.87,3.85-3.78,3.7
			c-3.63-0.22-7.26-0.22-10.82,0c-1.82,0.07-2.47-0.44-2.47-2.32c0.07-20.91,0.07-41.83,0.07-62.74c0-1.23-0.15-2.47,1.74-2.47
			c11.33,0.15,22.8-1.45,34.06,1.09c9.59,2.18,14.52,7.99,14.96,16.63c0.51,9.66-3.85,16.41-13,19.68c-2.9,1.02-2.54,1.96-1.09,3.92
			C453.39,459.26,459.2,467.9,465.45,476.98z M427.83,430.87v2.61c0,6.54,0,6.61,6.61,6.03c3.27-0.29,6.17-1.52,7.99-4.43
			c3.56-5.74,0-12.05-7.26-12.71c-7.26-0.65-7.26-0.73-7.26,6.24L427.83,430.87z"/>
		<path class="st1" d="M334.82,476.98c4.87-13.14,9.51-25.71,14.23-38.27c3.27-8.86,6.68-17.79,9.88-26.72
			c0.73-2.03,1.74-2.69,3.78-2.61c4.94,0.15,9.88,0.07,14.74,0c1.67,0,2.54,0.44,3.2,2.11c7.84,21.28,15.68,42.55,23.53,63.83
			c0.15,0.51,0.22,1.09,0.29,1.6c-5.81,0-11.4,0-17.06,0c-0.87,0.07-1.74-0.51-1.82-1.45c-0.07-0.29-0.22-0.65-0.29-0.94
			c-1.31-3.12-1.23-7.55-3.85-9.08c-2.61-1.52-6.61-0.36-10.02-0.36c-4.14,0-8.35,0.07-12.49-0.07c-1.89-0.07-2.9,0.36-3.56,2.32
			c-1.09,3.2-1.23,7.55-3.85,9.08c-2.61,1.52-6.61,0.44-9.95,0.44C339.39,477.05,337.36,476.98,334.82,476.98z M360.23,452.87
			c5.45,0,10.38,0,15.25,0c1.82,0,2.03-0.58,1.45-2.18c-2.69-7.26-5.3-14.6-8.06-22.15C366.04,436.75,363.21,444.59,360.23,452.87z"
			/>
		<path class="st1" d="M291.9,443.29c0-10.24,0.07-20.55-0.07-30.86c0-2.25,0.58-3.12,2.9-2.98c3.7,0.22,7.41,0.22,11.18,0
			c2.61-0.15,3.05,0.87,2.98,3.2c-0.07,15.32,0,30.64-0.15,45.96c0,2.69,0.58,3.56,3.34,3.41c5.37-0.22,10.75,0,16.05-0.07
			c1.82-0.07,2.47,0.51,2.4,2.4c-0.15,3.49-0.15,6.97,0,10.53c0.07,1.67-0.36,2.25-2.18,2.25c-11.47-0.07-22.95-0.07-34.42,0
			c-2.18,0-2.18-1.02-2.18-2.61C291.97,464.05,291.9,453.67,291.9,443.29z"/>
		<path class="st1" d="M634.49,176.36c-6.03,49.74-12.05,99.26-18.15,149c-2.11-0.94-3.2-2.76-4.65-4.07
			c-3.56-3.12-7.04-6.24-10.6-9.29c-1.31-1.09-1.67-2.03-1.23-3.85c10.53-40.23,20.91-80.46,31.37-120.68
			C632.17,183.84,632.75,180.06,634.49,176.36z"/>
		<path class="st1" d="M449.4,140.56c-1.89,15.61-3.85,31.22-5.74,46.84c-1.89,15.18-3.7,30.35-5.52,45.6
			c-1.67,13.58-3.41,27.08-4.94,40.66c-0.36,3.05-1.09,4.79-4.43,5.66c-5.74,1.6-11.33,3.99-17.43,6.24l37.61-145.3L449.4,140.56z"
			/>
		<path class="st1" d="M716.84,443.07c0-9.95,0.15-19.9-0.07-29.84c-0.07-3.12,0.94-3.92,3.85-3.7c3.05,0.29,6.1,0.29,9.15,0
			c3.34-0.36,3.92,1.02,3.85,3.99c-0.15,14.96,0,29.99-0.15,44.95c0,2.98,0.8,3.7,3.63,3.56c5.23-0.22,10.53,0,15.76-0.07
			c1.89,0,2.76,0.44,2.69,2.54c-0.15,3.49-0.07,6.97,0,10.53c0,1.52-0.44,2.11-2.03,2.11c-11.62-0.07-23.24-0.07-34.78,0
			c-2.4,0-1.96-1.52-1.96-2.83C716.77,463.84,716.77,453.45,716.84,443.07z"/>
		<path class="st1" d="M463.92,271.41c9.51-36.31,18.95-72.54,28.39-108.56c0.87,5.88-0.36,11.55-1.02,17.21
			c-1.96,17.79-4.21,35.58-6.32,53.37c-1.38,11.47-2.69,23.02-4.07,34.49c-0.22,1.89-0.8,2.83-2.98,2.83
			C473.36,270.68,468.79,271.12,463.92,271.41z"/>
		<path class="st1" d="M585.55,180.71c0.07,6.03-1.02,11.4-1.67,16.92c-1.82,15.83-3.78,31.66-5.59,47.49
			c-1.82,15.1-3.63,30.13-5.3,45.24c-0.29,2.25-1.09,2.11-2.69,1.31c-3.34-1.82-6.83-3.49-10.31-4.94
			c-2.18-0.87-2.32-2.03-1.82-3.99c5.08-19.32,10.17-38.56,15.25-57.87c3.63-13.8,7.26-27.67,10.89-41.46
			C584.39,182.31,584.83,181.37,585.55,180.71z"/>
		<path class="st1" d="M539.15,173.6c-0.87,7.55-1.67,14.67-2.47,21.78c-1.89,15.98-3.78,31.95-5.66,47.85
			c-1.16,9.88-2.32,19.75-3.49,29.63c-0.22,1.89-0.65,2.61-2.83,1.96c-3.2-0.8-6.39-1.45-9.66-1.89c-2.03-0.29-2.61-0.87-2.03-3.2
			c5.37-19.9,10.53-39.87,15.76-59.83c2.9-11.18,5.88-22.37,8.79-33.55C537.84,175.56,537.77,174.54,539.15,173.6z"/>
	</g>
</g>
</svg>
